<?xml version="1.0" encoding="UTF-8" standalone="no"?>
<svg width="200" height="200" viewBox="0 0 200 200" fill="none" xmlns="http://www.w3.org/2000/svg">
  <rect width="200" height="200" rx="20" fill="#121212"/>
  <path d="M40 60H160V140C160 151.046 151.046 160 140 160H60C48.9543 160 40 151.046 40 140V60Z" fill="#1A1A1A" stroke="#333333" stroke-width="2"/>
  <path d="M40 40C40 28.9543 48.9543 20 60 20H140C151.046 20 160 28.9543 160 40V60H40V40Z" fill="#FF3B3F" stroke="#333333" stroke-width="2"/>
  <path d="M70 40L90 40" stroke="white" stroke-width="4" stroke-linecap="round"/>
  <path d="M110 40L130 40" stroke="white" stroke-width="4" stroke-linecap="round"/>
  <path d="M60 80L140 80" stroke="#333333" stroke-width="2"/>
  <path d="M70 100L130 100" stroke="#333333" stroke-width="2"/>
  <path d="M80 120L120 120" stroke="#333333" stroke-width="2"/>
  <path d="M90 140L110 140" stroke="#333333" stroke-width="2"/>
  <path d="M50 50L55 55" stroke="white" stroke-width="2" stroke-linecap="round"/>
  <path d="M60 50L65 55" stroke="white" stroke-width="2" stroke-linecap="round"/>
  <text x="100" y="180" font-family="Inter, sans-serif" font-size="16" font-weight="700" fill="#EDEDED" text-anchor="middle">UNPACK</text>
</svg>
